<svg width="23" height="24" fill="none" xmlns="http://www.w3.org/2000/svg"><path d="M16.167 1.5H6.833A5.833 5.833 0 0 0 1 7.333v9.334A5.833 5.833 0 0 0 6.833 22.5h9.334A5.833 5.833 0 0 0 22 16.667V7.333A5.833 5.833 0 0 0 16.167 1.5z" stroke="#966C53" stroke-width="2" stroke-linecap="round" stroke-linejoin="round"/><path clip-rule="evenodd" d="M15.7 11.339a4.2 4.2 0 1 1-8.302 1.283 4.2 4.2 0 0 1 8.302-1.283z" stroke="#966C53" stroke-width="2" stroke-linecap="round" stroke-linejoin="round"/><path d="M17.333 7.333a1.167 1.167 0 1 0 0-2.333 1.167 1.167 0 0 0 0 2.333z" fill="#966C53"/></svg>