<svg width="19" height="19" fill="none" xmlns="http://www.w3.org/2000/svg"><path d="M17.844 13.271c-.032-.027-3.717-2.649-4.712-2.488-.48.085-.754.412-1.304 1.067-.089.106-.302.359-.467.539A8.42 8.42 0 0 1 6.05 7.077c.18-.166.434-.38.542-.47.652-.547.979-.822 1.064-1.303C7.829 4.31 5.193.626 5.166.592A1.407 1.407 0 0 0 4.118 0C3.05 0 0 3.955 0 4.622c0 .039.056 3.975 4.91 8.912 4.93 4.848 8.867 4.903 8.905 4.903.666 0 4.623-3.05 4.623-4.117a1.407 1.407 0 0 0-.594-1.049zm-4.097 3.934c-.534-.046-3.84-.482-7.97-4.538-4.076-4.15-4.501-7.463-4.544-7.976a16.627 16.627 0 0 1 2.893-3.418c.024.025.057.062.099.11A21.751 21.751 0 0 1 6.42 5.109a7.307 7.307 0 0 1-.624.56c-.34.258-.65.551-.93.874a.615.615 0 0 0-.105.461c.13.564.33 1.109.593 1.624A9.655 9.655 0 0 0 9.81 13.08a7 7 0 0 0 1.623.594.608.608 0 0 0 .462-.105c.323-.28.617-.593.877-.933.193-.23.45-.537.548-.623a21.592 21.592 0 0 1 3.734 2.199c.051.043.087.076.111.098a16.615 16.615 0 0 1-3.418 2.892v.002z" fill="#fff"/></svg>