<svg width="17" height="26" fill="none" xmlns="http://www.w3.org/2000/svg"><path fill-rule="evenodd" clip-rule="evenodd" d="M13 0a3.325 3.325 0 0 1 3.325 3.325v19.35A3.326 3.326 0 0 1 13 26H3.325A3.326 3.326 0 0 1 0 22.675V3.325A3.325 3.325 0 0 1 3.325 0H13zm0 1.813h-.303v.303c0 1.108-.85 2.015-1.933 2.109l-.182.008H5.745a2.116 2.116 0 0 1-2.117-2.117l-.001-.303h-.302c-.834 0-1.512.677-1.512 1.512v19.35c0 .834.677 1.511 1.512 1.511H13c.835 0 1.512-.675 1.512-1.511V3.325c0-.834-.676-1.512-1.512-1.512z" fill="#966C53"/><path d="M8.164 22.828a1.664 1.664 0 1 0 0-3.328 1.664 1.664 0 0 0 0 3.328z" fill="#966C53"/></svg>