<svg width="24" height="24" fill="none" xmlns="http://www.w3.org/2000/svg"><path d="M20.454 3.485A11.913 11.913 0 0 0 12 0a11.972 11.972 0 0 0-8.467 3.482A11.768 11.768 0 0 0 0 11.888v.006c0 1.918.504 3.852 1.462 5.618L.034 24l6.568-1.493c1.674.84 3.52 1.28 5.393 1.28H12a11.974 11.974 0 0 0 8.466-3.483c2.278-2.251 3.533-5.237 3.534-8.406 0-3.148-1.259-6.136-3.546-8.412v-.001zM12 21.915h-.005a10.142 10.142 0 0 1-4.817-1.221l-.312-.168-4.368.992.95-4.308-.183-.315c-.91-1.566-1.39-3.297-1.39-5.002C1.877 6.371 6.42 1.872 12 1.872c2.695 0 5.228 1.044 7.132 2.94 1.932 1.922 2.995 4.439 2.994 7.085C22.124 17.419 17.58 21.913 12 21.913l-.001.001z" fill="#966C53"/><path d="M8.387 6h-.565a1.1 1.1 0 0 0-.788.365C6.763 6.658 6 7.363 6 8.799c0 1.436 1.058 2.824 1.207 3.018.147.195 2.042 3.235 5.043 4.405 2.494.971 3 .778 3.542.73.541-.049 1.746-.706 1.993-1.387.246-.681.246-1.266.172-1.387-.074-.122-.271-.195-.566-.34-.295-.147-1.742-.866-2.012-.962-.272-.097-.468-.147-.665.146-.196.292-.777.966-.95 1.161-.172.195-.343.22-.64.074-.295-.146-1.236-.46-2.363-1.454-.877-.775-1.487-1.76-1.658-2.053-.174-.292-.02-.45.128-.595a8.22 8.22 0 0 0 .46-.48c.147-.17.189-.292.287-.486.099-.195.05-.366-.024-.512-.074-.145-.64-1.588-.904-2.166-.22-.486-.453-.502-.663-.511z" fill="#966C53"/></svg>