<svg width="18" height="18" fill="none" xmlns="http://www.w3.org/2000/svg"><path fill-rule="evenodd" clip-rule="evenodd" d="M15.16 2.589A8.77 8.77 0 0 0 8.918 0C4.052 0 .092 3.96.09 8.826a8.81 8.81 0 0 0 1.178 4.413L.016 17.812l4.68-1.227a8.817 8.817 0 0 0 4.217 1.074h.004c4.865 0 8.824-3.96 8.826-8.826a8.772 8.772 0 0 0-2.582-6.244zm-6.243 13.58h-.003a7.328 7.328 0 0 1-3.734-1.023l-.268-.159-2.777.729.742-2.708-.175-.277A7.318 7.318 0 0 1 1.58 8.826c.002-4.044 3.293-7.335 7.34-7.335 1.96 0 3.801.764 5.186 2.151a7.293 7.293 0 0 1 2.147 5.19c-.002 4.046-3.293 7.337-7.336 7.337zm4.024-5.495c-.22-.11-1.305-.644-1.507-.717-.202-.074-.35-.11-.496.11-.147.22-.57.718-.699.865-.128.147-.257.165-.477.055-.221-.11-.932-.343-1.774-1.095-.656-.584-1.098-1.307-1.227-1.527-.128-.221-.001-.33.097-.45.239-.297.478-.608.551-.755.074-.147.037-.276-.018-.386-.055-.11-.496-1.196-.68-1.638-.18-.43-.361-.372-.497-.378a8.807 8.807 0 0 0-.422-.008.81.81 0 0 0-.588.276c-.202.22-.772.754-.772 1.84 0 1.085.79 2.134.9 2.281.11.147 1.556 2.375 3.768 3.33.526.228.937.363 1.257.465.529.168 1.01.144 1.39.087.423-.063 1.304-.533 1.488-1.048.184-.516.184-.957.129-1.05-.056-.091-.203-.146-.423-.257z" fill="#fff"/></svg>