<svg width="17" height="18" fill="none" xmlns="http://www.w3.org/2000/svg"><path d="M16.332 12.71c-.03-.026-3.402-2.425-4.313-2.278-.44.077-.69.377-1.194.977-.08.096-.276.328-.427.492A7.706 7.706 0 0 1 5.536 7.04c.165-.151.397-.346.496-.43.597-.5.896-.752.974-1.192.16-.91-2.253-4.282-2.278-4.312a1.288 1.288 0 0 0-.96-.542C2.792.563 0 4.183 0 4.793c0 .035.051 3.638 4.493 8.156 4.514 4.437 8.116 4.489 8.151 4.489.61 0 4.231-2.792 4.231-3.77a1.288 1.288 0 0 0-.543-.959zm-3.75 3.6c-.488-.043-3.514-.441-7.295-4.154-3.73-3.799-4.12-6.83-4.158-7.3a15.218 15.218 0 0 1 2.647-3.128c.023.022.052.056.09.1a19.908 19.908 0 0 1 2.011 3.41c-.18.182-.371.353-.571.513-.31.236-.596.505-.851.8a.563.563 0 0 0-.096.422c.119.516.301 1.015.543 1.486a8.837 8.837 0 0 0 4.077 4.076c.47.242.97.425 1.485.544a.557.557 0 0 0 .423-.097c.296-.256.565-.542.802-.853.177-.21.413-.491.502-.57a19.767 19.767 0 0 1 3.418 2.012l.102.09a15.205 15.205 0 0 1-3.129 2.647v.001z" fill="#966C53"/></svg>