<svg width="30" height="34" fill="none" xmlns="http://www.w3.org/2000/svg"><path d="M20.291 22.378c3.561-5.588 3.114-4.89 3.216-5.036a10.703 10.703 0 0 0 1.982-6.224c0-5.949-4.827-10.85-10.784-10.85-5.937 0-10.784 4.892-10.784 10.85 0 2.242.7 4.45 2.039 6.303l3.159 4.957C5.74 22.897 0 24.444 0 27.849c0 1.241.81 3.01 4.67 4.39 2.696.962 6.26 1.492 10.035 1.492 7.06 0 14.705-1.991 14.705-5.882 0-3.406-5.734-4.951-9.119-5.471zM7.598 16.343a8.797 8.797 0 0 1-1.716-5.225c0-4.903 3.948-8.889 8.823-8.889 4.865 0 8.823 3.988 8.823 8.889 0 1.829-.557 3.584-1.61 5.076-.095.125.398-.64-7.213 11.302L7.598 16.343zm7.107 15.427c-7.712 0-12.744-2.266-12.744-3.92 0-1.113 2.586-2.942 8.316-3.654l3.601 5.65a.98.98 0 0 0 1.654 0l3.601-5.65c5.73.712 8.317 2.541 8.317 3.653 0 1.64-4.988 3.921-12.745 3.921z" fill="#966C53"/><path d="M14.705 6.216a4.907 4.907 0 0 0-4.902 4.902 4.907 4.907 0 0 0 4.902 4.902 4.907 4.907 0 0 0 4.902-4.902 4.907 4.907 0 0 0-4.902-4.902zm0 7.843a2.944 2.944 0 0 1-2.94-2.941 2.944 2.944 0 0 1 2.94-2.941 2.944 2.944 0 0 1 2.941 2.94 2.944 2.944 0 0 1-2.94 2.942z" fill="#966C53"/></svg>