<svg width="15" height="25" fill="none" xmlns="http://www.w3.org/2000/svg"><path d="M.221 13.806c-.613 1.213.083 1.793 1.671 2.783 1.35.84 3.216 1.147 4.414 1.27L1.584 22.43c-1.374 1.325.838 3.453 2.212 2.155l3.717-3.61c1.423 1.38 2.787 2.7 3.718 3.615 1.374 1.303 3.585-.806 2.226-2.155-.102-.098-5.038-4.864-4.737-4.572 1.213-.123 3.05-.448 4.385-1.27h-.001c1.588-.997 2.284-1.575 1.68-2.789-.365-.688-1.35-1.264-2.66-.268 0 0-1.769 1.364-4.622 1.364-2.854 0-4.623-1.364-4.623-1.364-1.309-1.001-2.297-.42-2.658.268z" fill="#BBB"/><path d="M7 13c3.854 0 7-2.91 7-6.493C14 2.91 10.854 0 7 0S0 2.91 0 6.507C0 10.09 3.146 13 7 13zm0-9.703c1.894 0 3.438 1.435 3.438 3.21 0 1.76-1.544 3.196-3.437 3.196-1.894 0-3.438-1.435-3.438-3.196C3.562 4.731 5.106 3.297 7 3.297z" fill="#BBB"/></svg>