<svg width="30" height="18" fill="none" xmlns="http://www.w3.org/2000/svg"><path d="M24.354 9.94c-.471-.595-.337-.86 0-1.393.006-.006 3.9-5.386 4.301-7.211l.003-.001c.199-.665 0-1.154-.964-1.154h-3.19c-.812 0-1.187.42-1.387.889 0 0-1.624 3.887-3.922 6.407-.742.729-1.084.962-1.49.962-.198 0-.508-.233-.508-.898V1.335c0-.798-.228-1.154-.9-1.154H11.28c-.51 0-.812.372-.812.718 0 .757 1.149.93 1.268 3.058v4.616c0 1.011-.184 1.197-.59 1.197-1.085 0-3.717-3.903-5.277-8.37C5.555.531 5.248.181 4.43.181H1.239c-.91 0-1.094.42-1.094.889 0 .829 1.084 4.951 5.042 10.397C7.825 15.186 11.54 17.2 14.92 17.2c2.03 0 2.279-.447 2.279-1.217 0-3.552-.184-3.887.834-3.887.471 0 1.284.233 3.18 2.026 2.168 2.126 2.524 3.078 3.737 3.078h3.19c.91 0 1.37-.447 1.105-1.33-.607-1.856-4.706-5.674-4.89-5.93z" fill="#BBB"/></svg>