<svg width="25" height="25" fill="none" xmlns="http://www.w3.org/2000/svg"><path d="M12.906.238H12.9C6.23.238.806 5.663.806 12.335c0 2.646.853 5.099 2.303 7.09L1.6 23.92l4.65-1.486a11.993 11.993 0 0 0 6.655 2c6.67 0 12.094-5.428 12.094-12.098C25 5.665 19.576.238 12.906.238z" fill="#BBB"/><path d="M19.945 17.32c-.292.825-1.45 1.508-2.374 1.708-.632.134-1.458.242-4.237-.91-3.555-1.473-5.845-5.086-6.023-5.32-.17-.235-1.436-1.913-1.436-3.65 0-1.735.881-2.58 1.236-2.943.292-.298.775-.434 1.237-.434.15 0 .285.007.406.013.355.015.533.037.768.598.292.703 1.002 2.439 1.087 2.617.086.179.172.42.052.655-.114.242-.214.35-.392.555-.179.206-.348.363-.526.584-.164.192-.348.397-.143.753.206.347.917 1.507 1.963 2.439 1.35 1.202 2.445 1.586 2.837 1.75.292.12.64.091.853-.135.27-.292.605-.776.945-1.252.242-.342.547-.385.868-.264.327.114 2.055.968 2.41 1.145.356.179.59.263.676.413.085.15.085.853-.207 1.678z" fill="#FAFAFA"/></svg>