<svg width="160" height="52" fill="none" xmlns="http://www.w3.org/2000/svg"><path d="M121.544 40.072c-.031.577-.091 1.212-.091 2.194v4.648c0 1.847-.42 2.945-1.292 3.638-.901.721-2.163.952-3.334.952-1.082 0-2.314-.23-3.035-.664l.421-1.097c.601.318 1.562.635 2.674.635 1.712 0 2.944-.779 2.944-2.8v-.895h-.03c-.511.75-1.502 1.328-2.914 1.328-2.254 0-3.876-1.675-3.876-3.898 0-2.713 2.013-4.243 4.116-4.243 1.592 0 2.464.722 2.854 1.385h.03l.09-1.212h1.443v.029zm-1.713 3.147c0-.26-.03-.462-.09-.665-.301-.837-1.112-1.53-2.313-1.53-1.593 0-2.734 1.184-2.734 3.032 0 1.559.901 2.887 2.704 2.887 1.021 0 1.952-.549 2.313-1.501.09-.26.12-.52.12-.78v-1.443zM124.187 42.554c0-.952-.03-1.76-.09-2.482h1.442l.06 1.559h.09c.421-1.069 1.412-1.761 2.524-1.761.18 0 .33.029.48.057v1.386c-.18-.029-.33-.058-.57-.058-1.172 0-2.013.78-2.224 1.877-.03.202-.09.433-.09.664v4.273h-1.652v-5.515h.03zM138.547 43.998c0 2.945-2.343 4.244-4.536 4.244-2.464 0-4.386-1.588-4.386-4.128 0-2.685 2.012-4.244 4.536-4.244 2.614 0 4.386 1.674 4.386 4.128zm-7.24.087c0 1.76 1.142 3.06 2.764 3.06 1.592 0 2.764-1.3 2.764-3.118 0-1.357-.781-3.06-2.734-3.06-1.953 0-2.794 1.588-2.794 3.118zM148.402 45.875c0 .837.03 1.559.09 2.194h-1.473l-.09-1.3h-.03c-.42.636-1.412 1.502-3.034 1.502-1.442 0-3.155-.693-3.155-3.493V40.1h1.653v4.417c0 1.53.541 2.54 2.043 2.54 1.111 0 1.892-.664 2.193-1.328.09-.202.15-.49.15-.75v-4.908h1.653v5.803zM151.255 42.67c0-1.01-.03-1.847-.09-2.598h1.502l.09 1.386h.031c.691-.982 1.742-1.56 3.244-1.56 2.223 0 3.875 1.646 3.875 4.071 0 2.887-2.012 4.302-4.145 4.302-1.202 0-2.254-.462-2.824-1.242h-.031v4.36h-1.652V42.67zm1.623 2.136c0 .203.03.405.09.607.3 1.01 1.291 1.703 2.493 1.703 1.743 0 2.764-1.27 2.764-3.089 0-1.617-.961-2.973-2.733-2.973-1.142 0-2.194.721-2.524 1.79-.06.173-.12.404-.12.606l-.001 1.356h.031z" fill="#51061A"/><path d="M.202 11.635h9.463v25.348h7.12V11.635h9.464v-5.89H.202v5.89zM49.861 22.923c0 5.716-2.733 7.824-6.519 7.824-4.356 0-6.519-2.079-6.519-7.824V5.745h-7.09v17.178c0 9.383 4.897 14.06 13.61 14.06 8.171 0 13.068-4.677 13.068-14.06V5.745h-6.52v17.178h-.03zM77.26 24.684 66.235 5.745h-5.528v31.238h6.43v-18.91l8.29 14.521h3.215l8.292-14.954v19.343h6.43V5.745h-5.529L77.26 24.684zM109.706 5.745 96.668 36.983h6.82l9.523-24.31 3.695 9.644h-5.047l-1.893 6.149h9.284l3.244 8.517h7.03L116.316 5.745h-6.61zM152.667 27.023c3.846-1.848 6.31-5.255 6.31-9.99 0-7.102-5.228-11.288-13.189-11.288h-12.889v5.775H145.517c4.116 0 6.309 2.107 6.309 5.513 0 2.628-1.382 4.475-4.116 5.255h-14.811v14.695h6.85V28.32h6.309l6.039 8.662h7.42l-6.85-9.96z" fill="#1D1F3D"/><path d="M43.313 0c-.27 0-1.292 1.241-2.073 2.57-.752 1.328-1.262 2.713-1.172 2.887.09.288 1.622.432 3.184.404 1.412 0 2.855-.145 3.215-.376.12-.086-.42-1.645-1.201-3.03C44.544 1.154 43.613 0 43.313 0z" fill="#51061A"/></svg>